<mxfile host="app.diagrams.net" modified="2023-07-30T13:47:00.061Z" agent="Mozilla/5.0 (X11; Linux x86_64; rv:108.0) Gecko/20100101 Firefox/108.0" etag="M47QrBDcTZlsyHJ0cZ2s" version="21.6.6" type="device">
  <diagram id="CNQqmsxfFxIgaWTBAwi9" name="Page-1">
    <mxGraphModel dx="3562" dy="2263" grid="1" gridSize="10" guides="1" tooltips="1" connect="1" arrows="1" fold="1" page="1" pageScale="1" pageWidth="827" pageHeight="1169" math="0" shadow="0">
      <root>
        <mxCell id="0" />
        <mxCell id="1" parent="0" />
        <mxCell id="Zatl_ybfSAwXHSOVHGpd-10" value="" style="endArrow=none;html=1;rounded=0;align=center;verticalAlign=top;endFill=0;labelBackgroundColor=none;entryX=0.5;entryY=0;entryDx=0;entryDy=0;fontColor=#0000FF;strokeColor=#1A1A1A;exitX=1.014;exitY=-0.115;exitDx=0;exitDy=0;exitPerimeter=0;" parent="1" source="78LwuEahcBiL7WYBxUG0-4" target="78LwuEahcBiL7WYBxUG0-5" edge="1">
          <mxGeometry relative="1" as="geometry">
            <mxPoint x="290" y="310" as="sourcePoint" />
            <mxPoint x="540.0000000000001" y="290" as="targetPoint" />
            <Array as="points">
              <mxPoint x="540" y="300" />
            </Array>
          </mxGeometry>
        </mxCell>
        <mxCell id="Zatl_ybfSAwXHSOVHGpd-11" value="0..n" style="resizable=0;html=1;align=left;verticalAlign=top;labelBackgroundColor=none;fontColor=#1A1A1A;strokeColor=#0000FF;" parent="Zatl_ybfSAwXHSOVHGpd-10" connectable="0" vertex="1">
          <mxGeometry x="-1" relative="1" as="geometry">
            <mxPoint x="20" y="-30" as="offset" />
          </mxGeometry>
        </mxCell>
        <mxCell id="Zatl_ybfSAwXHSOVHGpd-12" value="fa riferimento a&amp;nbsp;&lt;span style=&quot;font-family: arial, sans-serif; font-size: 16px; text-align: left;&quot;&gt;▼&lt;/span&gt;" style="resizable=0;html=1;align=right;verticalAlign=bottom;labelBackgroundColor=none;fontColor=#1A1A1A;" parent="Zatl_ybfSAwXHSOVHGpd-10" connectable="0" vertex="1">
          <mxGeometry x="1" relative="1" as="geometry">
            <mxPoint y="-30" as="offset" />
          </mxGeometry>
        </mxCell>
        <mxCell id="Zatl_ybfSAwXHSOVHGpd-13" value="0..1" style="resizable=0;html=1;align=right;verticalAlign=top;labelBackgroundColor=none;" parent="Zatl_ybfSAwXHSOVHGpd-10" connectable="0" vertex="1">
          <mxGeometry x="1" relative="1" as="geometry" />
        </mxCell>
        <mxCell id="78LwuEahcBiL7WYBxUG0-1" value="Sezione" style="swimlane;fontStyle=0;childLayout=stackLayout;horizontal=1;startSize=26;horizontalStack=0;resizeParent=1;resizeParentMax=0;resizeLast=0;collapsible=1;marginBottom=0;labelBackgroundColor=none;fontColor=default;strokeColor=#000000;" parent="1" vertex="1">
          <mxGeometry x="100" y="87.33" width="140" height="52" as="geometry" />
        </mxCell>
        <mxCell id="78LwuEahcBiL7WYBxUG0-2" value="nome: testo" style="text;strokeColor=#1A1A1A;fillColor=none;align=left;verticalAlign=top;spacingLeft=4;spacingRight=4;overflow=hidden;rotatable=0;points=[[0,0.5],[1,0.5]];portConstraint=eastwest;labelBackgroundColor=none;fontColor=#1A1A1A;" parent="78LwuEahcBiL7WYBxUG0-1" vertex="1">
          <mxGeometry y="26" width="140" height="26" as="geometry" />
        </mxCell>
        <mxCell id="78LwuEahcBiL7WYBxUG0-3" value="Voce" style="swimlane;fontStyle=0;childLayout=stackLayout;horizontal=1;startSize=26;horizontalStack=0;resizeParent=1;resizeParentMax=0;resizeLast=0;collapsible=1;marginBottom=0;labelBackgroundColor=none;fontColor=#1A1A1A;strokeColor=#1A1A1A;" parent="1" vertex="1">
          <mxGeometry x="100" y="280" width="140" height="52" as="geometry" />
        </mxCell>
        <mxCell id="78LwuEahcBiL7WYBxUG0-4" value="descrizione: testo" style="text;strokeColor=#1A1A1A;fillColor=none;align=left;verticalAlign=top;spacingLeft=4;spacingRight=4;overflow=hidden;rotatable=0;points=[[0,0.5],[1,0.5]];portConstraint=eastwest;labelBackgroundColor=none;fontColor=#1A1A1A;" parent="78LwuEahcBiL7WYBxUG0-3" vertex="1">
          <mxGeometry y="26" width="140" height="26" as="geometry" />
        </mxCell>
        <mxCell id="78LwuEahcBiL7WYBxUG0-5" value="Ricetta" style="swimlane;fontStyle=0;childLayout=stackLayout;horizontal=1;startSize=26;horizontalStack=0;resizeParent=1;resizeParentMax=0;resizeLast=0;collapsible=1;marginBottom=0;labelBackgroundColor=none;" parent="1" vertex="1">
          <mxGeometry x="470" y="360" width="140" height="52" as="geometry" />
        </mxCell>
        <mxCell id="78LwuEahcBiL7WYBxUG0-7" value="Ricettario" style="swimlane;fontStyle=0;childLayout=stackLayout;horizontal=1;startSize=26;horizontalStack=0;resizeParent=1;resizeParentMax=0;resizeLast=0;collapsible=1;marginBottom=0;labelBackgroundColor=none;" parent="1" vertex="1">
          <mxGeometry x="-60" y="585" width="140" height="52" as="geometry" />
        </mxCell>
        <mxCell id="78LwuEahcBiL7WYBxUG0-11" value="Evento" style="swimlane;fontStyle=0;childLayout=stackLayout;horizontal=1;startSize=26;horizontalStack=0;resizeParent=1;resizeParentMax=0;resizeLast=0;collapsible=1;marginBottom=0;labelBackgroundColor=none;fillColor=#FFFFFF;strokeColor=default;" parent="1" vertex="1">
          <mxGeometry x="-1130" y="430" width="140" height="180" as="geometry" />
        </mxCell>
        <mxCell id="zDaDTRGFYudbighkzYUH-19" value="NoteIniziali: testo" style="text;strokeColor=none;fillColor=none;align=left;verticalAlign=top;spacingLeft=4;spacingRight=4;overflow=hidden;rotatable=0;points=[[0,0.5],[1,0.5]];portConstraint=eastwest;labelBackgroundColor=none;fontColor=#000000;" parent="78LwuEahcBiL7WYBxUG0-11" vertex="1">
          <mxGeometry y="26" width="140" height="24" as="geometry" />
        </mxCell>
        <mxCell id="xD5BY9tJC-6fg_E8GgrS-17" value="Stato: Testo" style="text;html=1;strokeColor=none;fillColor=none;align=left;verticalAlign=middle;whiteSpace=wrap;rounded=0;" parent="78LwuEahcBiL7WYBxUG0-11" vertex="1">
          <mxGeometry y="50" width="140" height="20" as="geometry" />
        </mxCell>
        <mxCell id="-Tsge1zEhWYLcT9jv_F0-25" value="NoteFinali: Testo [0..1]" style="text;strokeColor=none;fillColor=none;align=left;verticalAlign=top;spacingLeft=4;spacingRight=4;overflow=hidden;rotatable=0;points=[[0,0.5],[1,0.5]];portConstraint=eastwest;labelBackgroundColor=none;fontColor=#000000;" parent="78LwuEahcBiL7WYBxUG0-11" vertex="1">
          <mxGeometry y="70" width="140" height="30" as="geometry" />
        </mxCell>
        <mxCell id="RYqYyBbi1srDDAzu_ijg-1" value="DataInizio: Testo" style="text;html=1;strokeColor=none;fillColor=none;align=left;verticalAlign=middle;whiteSpace=wrap;rounded=0;" parent="78LwuEahcBiL7WYBxUG0-11" vertex="1">
          <mxGeometry y="100" width="140" height="20" as="geometry" />
        </mxCell>
        <mxCell id="RYqYyBbi1srDDAzu_ijg-2" value="DataFine: Testo" style="text;html=1;strokeColor=none;fillColor=none;align=left;verticalAlign=middle;whiteSpace=wrap;rounded=0;" parent="78LwuEahcBiL7WYBxUG0-11" vertex="1">
          <mxGeometry y="120" width="140" height="20" as="geometry" />
        </mxCell>
        <mxCell id="YMTrwRTS5k-p57J8fx8X-1" value="Documentazione: Testo" style="text;html=1;strokeColor=none;fillColor=none;align=left;verticalAlign=middle;whiteSpace=wrap;rounded=0;" parent="78LwuEahcBiL7WYBxUG0-11" vertex="1">
          <mxGeometry y="140" width="140" height="20" as="geometry" />
        </mxCell>
        <mxCell id="Vy3BGtT5b-SCxXcEpdcU-2" value="Descrizione: Testo" style="text;html=1;strokeColor=none;fillColor=none;align=left;verticalAlign=middle;whiteSpace=wrap;rounded=0;" parent="78LwuEahcBiL7WYBxUG0-11" vertex="1">
          <mxGeometry y="160" width="140" height="20" as="geometry" />
        </mxCell>
        <mxCell id="78LwuEahcBiL7WYBxUG0-13" value="Chef" style="swimlane;fontStyle=0;childLayout=stackLayout;horizontal=1;startSize=26;horizontalStack=0;resizeParent=1;resizeParentMax=0;resizeLast=0;collapsible=1;marginBottom=0;labelBackgroundColor=none;fillColor=#FFFFFF;strokeColor=default;" parent="1" vertex="1">
          <mxGeometry x="-770" y="513" width="140" height="52" as="geometry" />
        </mxCell>
        <mxCell id="78LwuEahcBiL7WYBxUG0-14" value="informazioni" style="text;strokeColor=none;fillColor=none;align=left;verticalAlign=top;spacingLeft=4;spacingRight=4;overflow=hidden;rotatable=0;points=[[0,0.5],[1,0.5]];portConstraint=eastwest;labelBackgroundColor=none;fontColor=#000000;" parent="78LwuEahcBiL7WYBxUG0-13" vertex="1">
          <mxGeometry y="26" width="140" height="26" as="geometry" />
        </mxCell>
        <mxCell id="78LwuEahcBiL7WYBxUG0-15" value="" style="endArrow=diamondThin;html=1;rounded=0;align=center;verticalAlign=top;endFill=1;labelBackgroundColor=none;endSize=18;fontColor=#0000FF;strokeColor=#1A1A1A;exitX=0.5;exitY=0;exitDx=0;exitDy=0;" parent="1" target="78LwuEahcBiL7WYBxUG0-2" edge="1" source="78LwuEahcBiL7WYBxUG0-3">
          <mxGeometry relative="1" as="geometry">
            <mxPoint x="540" y="220" as="sourcePoint" />
            <mxPoint x="514" y="430" as="targetPoint" />
          </mxGeometry>
        </mxCell>
        <mxCell id="78LwuEahcBiL7WYBxUG0-16" value="1" style="resizable=0;html=1;align=left;verticalAlign=top;labelBackgroundColor=none;fontColor=#0000FF;" parent="78LwuEahcBiL7WYBxUG0-15" connectable="0" vertex="1">
          <mxGeometry x="-1" relative="1" as="geometry">
            <mxPoint x="-20" y="120" as="offset" />
          </mxGeometry>
        </mxCell>
        <mxCell id="78LwuEahcBiL7WYBxUG0-17" value="appartiene&amp;nbsp;&amp;nbsp;&lt;span style=&quot;font-family: arial, sans-serif; font-size: 16px; text-align: left;&quot;&gt;▲&lt;/span&gt;" style="resizable=0;html=1;align=right;verticalAlign=bottom;labelBackgroundColor=none;fontColor=#000000;strokeColor=#0000FF;" parent="78LwuEahcBiL7WYBxUG0-15" connectable="0" vertex="1">
          <mxGeometry x="1" relative="1" as="geometry">
            <mxPoint x="90" y="58" as="offset" />
          </mxGeometry>
        </mxCell>
        <mxCell id="78LwuEahcBiL7WYBxUG0-18" value="0..1" style="resizable=0;html=1;align=right;verticalAlign=top;labelBackgroundColor=none;fontColor=#1A1A1A;strokeColor=#0000FF;" parent="78LwuEahcBiL7WYBxUG0-15" connectable="0" vertex="1">
          <mxGeometry x="1" relative="1" as="geometry">
            <mxPoint x="40" as="offset" />
          </mxGeometry>
        </mxCell>
        <mxCell id="78LwuEahcBiL7WYBxUG0-19" value="0..n" style="resizable=0;html=1;align=right;verticalAlign=top;labelBackgroundColor=none;fontColor=#1A1A1A;strokeColor=#0000FF;" parent="1" connectable="0" vertex="1">
          <mxGeometry x="190" y="251" as="geometry">
            <mxPoint x="12" y="4" as="offset" />
          </mxGeometry>
        </mxCell>
        <mxCell id="78LwuEahcBiL7WYBxUG0-33" value="" style="endArrow=diamondThin;html=1;rounded=0;align=center;verticalAlign=top;endFill=1;labelBackgroundColor=none;endSize=18;exitX=0;exitY=0.5;exitDx=0;exitDy=0;entryX=0.593;entryY=0.007;entryDx=0;entryDy=0;entryPerimeter=0;fontColor=#0000FF;strokeColor=#1A1A1A;" parent="1" source="78LwuEahcBiL7WYBxUG0-1" target="78LwuEahcBiL7WYBxUG0-9" edge="1">
          <mxGeometry relative="1" as="geometry">
            <mxPoint x="360" y="132" as="sourcePoint" />
            <mxPoint x="360" y="44" as="targetPoint" />
            <Array as="points">
              <mxPoint x="-227" y="113" />
            </Array>
          </mxGeometry>
        </mxCell>
        <mxCell id="78LwuEahcBiL7WYBxUG0-34" value="0..n" style="resizable=0;html=1;align=left;verticalAlign=top;labelBackgroundColor=none;fontColor=#1A1A1A;strokeColor=#0000FF;" parent="78LwuEahcBiL7WYBxUG0-33" connectable="0" vertex="1">
          <mxGeometry x="-1" relative="1" as="geometry">
            <mxPoint x="-30" y="-23" as="offset" />
          </mxGeometry>
        </mxCell>
        <mxCell id="78LwuEahcBiL7WYBxUG0-35" value="contiene&amp;nbsp;&lt;span style=&quot;font-family: arial, sans-serif; font-size: 16px; text-align: left;&quot;&gt;▶&lt;/span&gt;" style="resizable=0;html=1;align=right;verticalAlign=bottom;labelBackgroundColor=none;fontColor=#000000;strokeColor=#0000FF;" parent="78LwuEahcBiL7WYBxUG0-33" connectable="0" vertex="1">
          <mxGeometry x="1" relative="1" as="geometry">
            <mxPoint x="197" y="-96" as="offset" />
          </mxGeometry>
        </mxCell>
        <mxCell id="78LwuEahcBiL7WYBxUG0-36" value="1" style="resizable=0;html=1;align=right;verticalAlign=top;labelBackgroundColor=none;fontColor=#0000FF;strokeColor=#0000FF;" parent="78LwuEahcBiL7WYBxUG0-33" connectable="0" vertex="1">
          <mxGeometry x="1" relative="1" as="geometry">
            <mxPoint x="-10" y="-31" as="offset" />
          </mxGeometry>
        </mxCell>
        <mxCell id="78LwuEahcBiL7WYBxUG0-37" value="" style="endArrow=diamondThin;html=1;rounded=0;align=center;verticalAlign=top;endFill=1;labelBackgroundColor=none;endSize=18;exitX=-0.021;exitY=0.385;exitDx=0;exitDy=0;exitPerimeter=0;fontColor=#0000FF;strokeColor=#1A1A1A;entryX=1.029;entryY=0.331;entryDx=0;entryDy=0;entryPerimeter=0;" parent="1" source="78LwuEahcBiL7WYBxUG0-3" target="78LwuEahcBiL7WYBxUG0-10" edge="1">
          <mxGeometry relative="1" as="geometry">
            <mxPoint x="350" y="220" as="sourcePoint" />
            <mxPoint x="-180" y="300" as="targetPoint" />
          </mxGeometry>
        </mxCell>
        <mxCell id="78LwuEahcBiL7WYBxUG0-38" value="0..n" style="resizable=0;html=1;align=left;verticalAlign=top;labelBackgroundColor=none;fontColor=#1A1A1A;strokeColor=#0000FF;" parent="78LwuEahcBiL7WYBxUG0-37" connectable="0" vertex="1">
          <mxGeometry x="-1" relative="1" as="geometry">
            <mxPoint x="-27" y="-29" as="offset" />
          </mxGeometry>
        </mxCell>
        <mxCell id="78LwuEahcBiL7WYBxUG0-39" value="&lt;font style=&quot;font-size: 15px&quot;&gt;◀︎&lt;/font&gt;&amp;nbsp;appartiene&amp;nbsp;" style="resizable=0;html=1;align=right;verticalAlign=bottom;labelBackgroundColor=none;fontColor=#1A1A1A;strokeColor=#0000FF;" parent="78LwuEahcBiL7WYBxUG0-37" connectable="0" vertex="1">
          <mxGeometry x="1" relative="1" as="geometry">
            <mxPoint x="139" y="-2" as="offset" />
          </mxGeometry>
        </mxCell>
        <mxCell id="78LwuEahcBiL7WYBxUG0-40" value="0..1" style="resizable=0;html=1;align=right;verticalAlign=top;labelBackgroundColor=none;fontColor=#1A1A1A;strokeColor=#0000FF;" parent="78LwuEahcBiL7WYBxUG0-37" connectable="0" vertex="1">
          <mxGeometry x="1" relative="1" as="geometry">
            <mxPoint x="29" y="-29" as="offset" />
          </mxGeometry>
        </mxCell>
        <mxCell id="78LwuEahcBiL7WYBxUG0-45" value="" style="endArrow=none;html=1;rounded=0;align=center;verticalAlign=top;endFill=0;labelBackgroundColor=none;entryX=0.5;entryY=0;entryDx=0;entryDy=0;exitX=1;exitY=0.5;exitDx=0;exitDy=0;" parent="1" source="-Tsge1zEhWYLcT9jv_F0-25" target="78LwuEahcBiL7WYBxUG0-13" edge="1">
          <mxGeometry relative="1" as="geometry">
            <mxPoint x="-940" y="500" as="sourcePoint" />
            <mxPoint x="210" y="440" as="targetPoint" />
          </mxGeometry>
        </mxCell>
        <mxCell id="78LwuEahcBiL7WYBxUG0-46" value="0..n" style="resizable=0;html=1;align=left;verticalAlign=top;labelBackgroundColor=none;" parent="78LwuEahcBiL7WYBxUG0-45" connectable="0" vertex="1">
          <mxGeometry x="-1" relative="1" as="geometry">
            <mxPoint x="10" y="-20" as="offset" />
          </mxGeometry>
        </mxCell>
        <mxCell id="78LwuEahcBiL7WYBxUG0-47" value="assegnato a&amp;nbsp;&lt;span style=&quot;color: rgb(32 , 33 , 36) ; font-family: &amp;#34;arial&amp;#34; , sans-serif ; font-size: 16px ; text-align: left&quot;&gt;▼&lt;/span&gt;" style="resizable=0;html=1;align=right;verticalAlign=bottom;labelBackgroundColor=none;" parent="78LwuEahcBiL7WYBxUG0-45" connectable="0" vertex="1">
          <mxGeometry x="1" relative="1" as="geometry">
            <mxPoint x="-100" y="-13" as="offset" />
          </mxGeometry>
        </mxCell>
        <mxCell id="78LwuEahcBiL7WYBxUG0-48" value="0..1" style="resizable=0;html=1;align=right;verticalAlign=top;labelBackgroundColor=none;" parent="78LwuEahcBiL7WYBxUG0-45" connectable="0" vertex="1">
          <mxGeometry x="1" relative="1" as="geometry">
            <mxPoint x="-10" y="-25" as="offset" />
          </mxGeometry>
        </mxCell>
        <mxCell id="anGM7aMK89ea6Gd5aUln-1" value="Servizio" style="swimlane;fontStyle=0;align=center;verticalAlign=top;childLayout=stackLayout;horizontal=1;startSize=26;horizontalStack=0;resizeParent=1;resizeLast=0;collapsible=1;marginBottom=0;rounded=0;shadow=0;strokeWidth=1;fillColor=default;strokeColor=default;" parent="1" vertex="1">
          <mxGeometry x="-800" y="80" width="160" height="186" as="geometry">
            <mxRectangle x="550" y="140" width="160" height="26" as="alternateBounds" />
          </mxGeometry>
        </mxCell>
        <mxCell id="xD5BY9tJC-6fg_E8GgrS-18" value="Tipo: Testo" style="text;strokeColor=none;fillColor=none;align=left;verticalAlign=top;spacingLeft=4;spacingRight=4;overflow=hidden;rotatable=0;points=[[0,0.5],[1,0.5]];portConstraint=eastwest;labelBackgroundColor=none;fontColor=#000000;" parent="anGM7aMK89ea6Gd5aUln-1" vertex="1">
          <mxGeometry y="26" width="160" height="24" as="geometry" />
        </mxCell>
        <mxCell id="zDaDTRGFYudbighkzYUH-18" value="Data: Testo " style="text;strokeColor=none;fillColor=none;align=left;verticalAlign=top;spacingLeft=4;spacingRight=4;overflow=hidden;rotatable=0;points=[[0,0.5],[1,0.5]];portConstraint=eastwest;labelBackgroundColor=none;fontColor=#000000;" parent="anGM7aMK89ea6Gd5aUln-1" vertex="1">
          <mxGeometry y="50" width="160" height="28" as="geometry" />
        </mxCell>
        <mxCell id="zDaDTRGFYudbighkzYUH-20" value="Luogo: Testo" style="text;strokeColor=none;fillColor=none;align=left;verticalAlign=top;spacingLeft=4;spacingRight=4;overflow=hidden;rotatable=0;points=[[0,0.5],[1,0.5]];portConstraint=eastwest;labelBackgroundColor=none;fontColor=#000000;" parent="anGM7aMK89ea6Gd5aUln-1" vertex="1">
          <mxGeometry y="78" width="160" height="24" as="geometry" />
        </mxCell>
        <mxCell id="zDaDTRGFYudbighkzYUH-21" value="Numero di persone: Numero" style="text;strokeColor=none;fillColor=none;align=left;verticalAlign=top;spacingLeft=4;spacingRight=4;overflow=hidden;rotatable=0;points=[[0,0.5],[1,0.5]];portConstraint=eastwest;labelBackgroundColor=none;fontColor=#000000;" parent="anGM7aMK89ea6Gd5aUln-1" vertex="1">
          <mxGeometry y="102" width="160" height="24" as="geometry" />
        </mxCell>
        <mxCell id="VZPHV5qA_Ss-NTKiFyPM-1" value="approvato: Sì\No" style="text;html=1;align=left;verticalAlign=middle;resizable=0;points=[];autosize=1;strokeColor=none;fillColor=none;" parent="anGM7aMK89ea6Gd5aUln-1" vertex="1">
          <mxGeometry y="126" width="160" height="30" as="geometry" />
        </mxCell>
        <mxCell id="SxB-an0MRpLHH-OonoaN-1" value="apprezzato: Sì\No" style="text;html=1;align=left;verticalAlign=middle;resizable=0;points=[];autosize=1;strokeColor=none;fillColor=none;" parent="anGM7aMK89ea6Gd5aUln-1" vertex="1">
          <mxGeometry y="156" width="160" height="30" as="geometry" />
        </mxCell>
        <mxCell id="anGM7aMK89ea6Gd5aUln-3" style="edgeStyle=orthogonalEdgeStyle;rounded=0;orthogonalLoop=1;jettySize=auto;html=1;entryX=1;entryY=0.5;entryDx=0;entryDy=0;endArrow=none;endFill=0;exitX=0.25;exitY=0;exitDx=0;exitDy=0;" parent="1" source="78LwuEahcBiL7WYBxUG0-9" target="anGM7aMK89ea6Gd5aUln-1" edge="1">
          <mxGeometry relative="1" as="geometry">
            <Array as="points">
              <mxPoint x="-275" y="173" />
            </Array>
            <mxPoint x="-290" y="220" as="sourcePoint" />
          </mxGeometry>
        </mxCell>
        <mxCell id="anGM7aMK89ea6Gd5aUln-4" value="In uso in" style="text;html=1;strokeColor=none;fillColor=none;align=center;verticalAlign=middle;whiteSpace=wrap;rounded=0;" parent="1" vertex="1">
          <mxGeometry x="-460" y="139.33" width="50" height="20" as="geometry" />
        </mxCell>
        <mxCell id="anGM7aMK89ea6Gd5aUln-5" value="" style="triangle;whiteSpace=wrap;html=1;rotation=-180;fillColor=#dae8fc;strokeColor=#6c8ebf;" parent="1" vertex="1">
          <mxGeometry x="-480" y="135.66" width="10" height="20" as="geometry" />
        </mxCell>
        <mxCell id="anGM7aMK89ea6Gd5aUln-6" value="0...n" style="text;html=1;strokeColor=none;fillColor=none;align=center;verticalAlign=middle;whiteSpace=wrap;rounded=0;" parent="1" vertex="1">
          <mxGeometry x="-640" y="143" width="33.67" height="9" as="geometry" />
        </mxCell>
        <mxCell id="anGM7aMK89ea6Gd5aUln-7" value="0..1" style="text;html=1;strokeColor=none;fillColor=none;align=center;verticalAlign=middle;whiteSpace=wrap;rounded=0;" parent="1" vertex="1">
          <mxGeometry x="-330" y="192" width="50" height="18" as="geometry" />
        </mxCell>
        <mxCell id="anGM7aMK89ea6Gd5aUln-9" style="edgeStyle=orthogonalEdgeStyle;rounded=0;orthogonalLoop=1;jettySize=auto;html=1;entryX=0.5;entryY=1;entryDx=0;entryDy=0;endArrow=none;endFill=0;startArrow=diamondThin;startFill=1;exitX=1;exitY=0.5;exitDx=0;exitDy=0;" parent="1" source="zDaDTRGFYudbighkzYUH-19" target="anGM7aMK89ea6Gd5aUln-1" edge="1">
          <mxGeometry relative="1" as="geometry">
            <mxPoint x="-930" y="470" as="sourcePoint" />
          </mxGeometry>
        </mxCell>
        <mxCell id="anGM7aMK89ea6Gd5aUln-10" value="Prevede" style="text;html=1;strokeColor=none;fillColor=none;align=center;verticalAlign=middle;whiteSpace=wrap;rounded=0;" parent="1" vertex="1">
          <mxGeometry x="-800" y="390" width="60" height="30" as="geometry" />
        </mxCell>
        <mxCell id="anGM7aMK89ea6Gd5aUln-11" value="0..n" style="text;html=1;strokeColor=none;fillColor=none;align=center;verticalAlign=middle;whiteSpace=wrap;rounded=0;" parent="1" vertex="1">
          <mxGeometry x="-280" y="410" width="60" height="30" as="geometry" />
        </mxCell>
        <mxCell id="anGM7aMK89ea6Gd5aUln-12" value="1" style="text;html=1;strokeColor=none;fillColor=none;align=center;verticalAlign=middle;whiteSpace=wrap;rounded=0;" parent="1" vertex="1">
          <mxGeometry x="-980" y="435" width="60" height="30" as="geometry" />
        </mxCell>
        <mxCell id="anGM7aMK89ea6Gd5aUln-14" value="" style="triangle;whiteSpace=wrap;html=1;rotation=-90;fillColor=#dae8fc;strokeColor=#6c8ebf;" parent="1" vertex="1">
          <mxGeometry x="-775" y="370" width="10" height="20" as="geometry" />
        </mxCell>
        <mxCell id="anGM7aMK89ea6Gd5aUln-20" style="edgeStyle=orthogonalEdgeStyle;rounded=0;orthogonalLoop=1;jettySize=auto;html=1;endArrow=none;endFill=0;" parent="1" source="anGM7aMK89ea6Gd5aUln-15" edge="1">
          <mxGeometry relative="1" as="geometry">
            <Array as="points">
              <mxPoint x="841" y="314" />
              <mxPoint x="841" y="506" />
            </Array>
            <mxPoint x="841" y="520" as="targetPoint" />
          </mxGeometry>
        </mxCell>
        <mxCell id="anGM7aMK89ea6Gd5aUln-15" value="Compito" style="swimlane;fontStyle=0;align=center;verticalAlign=top;childLayout=stackLayout;horizontal=1;startSize=26;horizontalStack=0;resizeParent=1;resizeLast=0;collapsible=1;marginBottom=0;rounded=0;shadow=0;strokeWidth=1;fillColor=default;strokeColor=default;" parent="1" vertex="1">
          <mxGeometry x="760" y="241" width="170" height="146" as="geometry">
            <mxRectangle x="340" y="380" width="170" height="26" as="alternateBounds" />
          </mxGeometry>
        </mxCell>
        <mxCell id="anGM7aMK89ea6Gd5aUln-16" value="Stima tempo: testo [0...1]" style="text;html=1;align=center;verticalAlign=middle;resizable=0;points=[];autosize=1;strokeColor=none;fillColor=none;" parent="anGM7aMK89ea6Gd5aUln-15" vertex="1">
          <mxGeometry y="26" width="170" height="30" as="geometry" />
        </mxCell>
        <mxCell id="anGM7aMK89ea6Gd5aUln-17" value="Quantità/porzioni: testo [0...1]" style="text;html=1;align=center;verticalAlign=middle;resizable=0;points=[];autosize=1;strokeColor=none;fillColor=none;" parent="anGM7aMK89ea6Gd5aUln-15" vertex="1">
          <mxGeometry y="56" width="170" height="30" as="geometry" />
        </mxCell>
        <mxCell id="anGM7aMK89ea6Gd5aUln-39" value="Da preparare : sì\no [0...1]" style="text;html=1;strokeColor=none;fillColor=none;align=center;verticalAlign=middle;whiteSpace=wrap;rounded=0;" parent="anGM7aMK89ea6Gd5aUln-15" vertex="1">
          <mxGeometry y="86" width="170" height="30" as="geometry" />
        </mxCell>
        <mxCell id="anGM7aMK89ea6Gd5aUln-43" style="edgeStyle=orthogonalEdgeStyle;rounded=0;orthogonalLoop=1;jettySize=auto;html=1;endArrow=none;endFill=0;" parent="anGM7aMK89ea6Gd5aUln-15" source="anGM7aMK89ea6Gd5aUln-15" edge="1">
          <mxGeometry relative="1" as="geometry">
            <mxPoint x="140" y="-1" as="targetPoint" />
            <Array as="points">
              <mxPoint x="80" y="-101" />
              <mxPoint x="140" y="-101" />
            </Array>
          </mxGeometry>
        </mxCell>
        <mxCell id="xD5BY9tJC-6fg_E8GgrS-11" style="edgeStyle=orthogonalEdgeStyle;rounded=0;orthogonalLoop=1;jettySize=auto;html=1;endArrow=none;endFill=0;" parent="1" source="anGM7aMK89ea6Gd5aUln-19" edge="1">
          <mxGeometry relative="1" as="geometry">
            <mxPoint x="1040" y="620" as="targetPoint" />
          </mxGeometry>
        </mxCell>
        <mxCell id="anGM7aMK89ea6Gd5aUln-19" value="Cuoco" style="swimlane;fontStyle=0;childLayout=stackLayout;horizontal=1;startSize=26;fillColor=default;horizontalStack=0;resizeParent=1;resizeParentMax=0;resizeLast=0;collapsible=1;marginBottom=0;whiteSpace=wrap;html=1;strokeColor=default;" parent="1" vertex="1">
          <mxGeometry x="780" y="510" width="140" height="52" as="geometry" />
        </mxCell>
        <mxCell id="anGM7aMK89ea6Gd5aUln-21" value="Svolto da" style="text;html=1;strokeColor=none;fillColor=none;align=center;verticalAlign=middle;whiteSpace=wrap;rounded=0;" parent="1" vertex="1">
          <mxGeometry x="850" y="430" width="60" height="30" as="geometry" />
        </mxCell>
        <mxCell id="anGM7aMK89ea6Gd5aUln-22" value="0..1" style="text;html=1;strokeColor=none;fillColor=none;align=center;verticalAlign=middle;whiteSpace=wrap;rounded=0;" parent="1" vertex="1">
          <mxGeometry x="850" y="480" width="60" height="30" as="geometry" />
        </mxCell>
        <mxCell id="anGM7aMK89ea6Gd5aUln-23" value="0..n" style="text;html=1;strokeColor=none;fillColor=none;align=center;verticalAlign=middle;whiteSpace=wrap;rounded=0;" parent="1" vertex="1">
          <mxGeometry x="850" y="387" width="60" height="30" as="geometry" />
        </mxCell>
        <mxCell id="anGM7aMK89ea6Gd5aUln-63" style="edgeStyle=orthogonalEdgeStyle;rounded=0;orthogonalLoop=1;jettySize=auto;html=1;entryX=0.5;entryY=0;entryDx=0;entryDy=0;endArrow=none;endFill=0;" parent="1" source="anGM7aMK89ea6Gd5aUln-24" target="anGM7aMK89ea6Gd5aUln-62" edge="1">
          <mxGeometry relative="1" as="geometry">
            <Array as="points">
              <mxPoint x="1540" y="547" />
            </Array>
          </mxGeometry>
        </mxCell>
        <mxCell id="anGM7aMK89ea6Gd5aUln-24" value="Turno" style="swimlane;fontStyle=0;childLayout=stackLayout;horizontal=1;startSize=26;fillColor=default;horizontalStack=0;resizeParent=1;resizeParentMax=0;resizeLast=0;collapsible=1;marginBottom=0;whiteSpace=wrap;html=1;strokeColor=default;" parent="1" vertex="1">
          <mxGeometry x="1470" y="130" width="140" height="56" as="geometry" />
        </mxCell>
        <mxCell id="f9zp66g2ktGecqV36SBP-1" value="Completo: Sì/No" style="text;html=1;strokeColor=none;fillColor=none;align=center;verticalAlign=middle;whiteSpace=wrap;rounded=0;" parent="anGM7aMK89ea6Gd5aUln-24" vertex="1">
          <mxGeometry y="26" width="140" height="30" as="geometry" />
        </mxCell>
        <mxCell id="anGM7aMK89ea6Gd5aUln-26" style="edgeStyle=orthogonalEdgeStyle;rounded=0;orthogonalLoop=1;jettySize=auto;html=1;entryX=0;entryY=0.5;entryDx=0;entryDy=0;endArrow=none;endFill=0;" parent="1" source="anGM7aMK89ea6Gd5aUln-17" target="anGM7aMK89ea6Gd5aUln-24" edge="1">
          <mxGeometry relative="1" as="geometry">
            <Array as="points">
              <mxPoint x="1470" y="312" />
            </Array>
          </mxGeometry>
        </mxCell>
        <mxCell id="anGM7aMK89ea6Gd5aUln-27" value="Svolto durante un" style="text;html=1;strokeColor=none;fillColor=none;align=center;verticalAlign=middle;whiteSpace=wrap;rounded=0;" parent="1" vertex="1">
          <mxGeometry x="1300" y="267" width="100" height="30" as="geometry" />
        </mxCell>
        <mxCell id="anGM7aMK89ea6Gd5aUln-28" value="" style="triangle;whiteSpace=wrap;html=1;rotation=0;fillColor=#dae8fc;strokeColor=#6c8ebf;" parent="1" vertex="1">
          <mxGeometry x="1405" y="272" width="10" height="20" as="geometry" />
        </mxCell>
        <mxCell id="anGM7aMK89ea6Gd5aUln-31" value="0..1" style="text;html=1;strokeColor=none;fillColor=none;align=center;verticalAlign=middle;whiteSpace=wrap;rounded=0;" parent="1" vertex="1">
          <mxGeometry x="1415" y="175" width="50" height="30" as="geometry" />
        </mxCell>
        <mxCell id="anGM7aMK89ea6Gd5aUln-33" value="0..n" style="text;html=1;strokeColor=none;fillColor=none;align=center;verticalAlign=middle;whiteSpace=wrap;rounded=0;" parent="1" vertex="1">
          <mxGeometry x="940" y="272" width="60" height="30" as="geometry" />
        </mxCell>
        <mxCell id="anGM7aMK89ea6Gd5aUln-36" value="0..n" style="text;html=1;strokeColor=none;fillColor=none;align=center;verticalAlign=middle;whiteSpace=wrap;rounded=0;" parent="1" vertex="1">
          <mxGeometry x="1540" y="190" width="50" height="20" as="geometry" />
        </mxCell>
        <mxCell id="anGM7aMK89ea6Gd5aUln-38" value="" style="triangle;whiteSpace=wrap;html=1;rotation=90;fillColor=#dae8fc;strokeColor=#6c8ebf;" parent="1" vertex="1">
          <mxGeometry x="875" y="450" width="10" height="20" as="geometry" />
        </mxCell>
        <mxCell id="anGM7aMK89ea6Gd5aUln-42" value="&lt;h1&gt;Business Rules&lt;br&gt;&lt;/h1&gt;&lt;p&gt;-Se l&#39;attributo &quot;Da Preparare&quot; di un compito vale sì, allora questo non è associato ad alcun cuoco e turno&lt;br&gt;&lt;/p&gt;&lt;div&gt;&lt;br&gt;&lt;/div&gt;&lt;div&gt;-Se l&#39;attributo &quot;Completato&quot; di un compito vale sì, allora quest&#39;ultimo è associato ad un cuoco ed un turno&lt;/div&gt;&lt;div&gt;&lt;br&gt;&lt;/div&gt;&lt;div&gt;-Un compito non può essere prosecuzione di se stesso&lt;br&gt;&lt;/div&gt;&lt;div&gt;&lt;br&gt;&lt;/div&gt;&lt;div&gt;-Se un compito c&#39; è prosecuzione di un altro compito c, allora c&#39; deve essere svolto durante un turno successivo a quello a cui è associato c&#39;&lt;/div&gt;&lt;div&gt;&lt;br&gt;&lt;/div&gt;&lt;div&gt;-Un preparazione non può essere ingrediente di se stessa&lt;/div&gt;&lt;div&gt;&lt;br&gt;&lt;/div&gt;&lt;div&gt;-Se il compito c è svolto durante il turno t, allora c deve essere solvto da un cuoco cu disponibile in c&lt;br&gt;&lt;/div&gt;&lt;div&gt;&lt;br&gt;&lt;/div&gt;&lt;div&gt;-L&#39;attributo Stato di Evento può assumere soltanto i valori &quot;in corso&quot; e &quot;terminato&quot;&lt;/div&gt;&lt;div&gt;&lt;br&gt;&lt;/div&gt;&lt;div&gt;-L&#39;attributo &quot;Prenotato&quot; di un turno t può valere sì se e solo se t è associato un cuoco c e/o ad un membro del personale di servizio&lt;br&gt;&lt;/div&gt;&lt;div&gt;&lt;br&gt;&lt;/div&gt;&lt;div&gt;-Solo una tra gli attributi &quot;Numero occorrenze&quot; e &quot;Data di fine ricorrenza&quot; di Evento Capofila può essere valorizzato (un po&#39; restrittivo, ma meglio che evitare tanti controlli incrociati)&lt;br&gt;&lt;/div&gt;&lt;div&gt;&lt;br&gt;&lt;/div&gt;&lt;div&gt;-Il valore dell&#39;attributo &quot;Numero occorrenze&quot; di un Evento Capofila c deve essere pari al numero di Ricorrenze di cui c è aggregazione&lt;br&gt;&lt;/div&gt;&lt;div&gt;&lt;br&gt;&lt;/div&gt;&lt;div&gt;&lt;br&gt;&lt;/div&gt;Disponibilità.Ruolo è valorizzato solo se Disponibilità.Prenotato = Sì e Disponibilità è associata ad un servizio ed il membro del personale associato alla disponibilità è un membro del personale di servizio" style="text;html=1;strokeColor=none;fillColor=none;spacing=5;spacingTop=-20;whiteSpace=wrap;overflow=hidden;rounded=0;" parent="1" vertex="1">
          <mxGeometry x="1890" y="40.5" width="740" height="629.5" as="geometry" />
        </mxCell>
        <mxCell id="anGM7aMK89ea6Gd5aUln-44" value="Prosecuzione di" style="text;html=1;strokeColor=none;fillColor=none;align=center;verticalAlign=middle;whiteSpace=wrap;rounded=0;" parent="1" vertex="1">
          <mxGeometry x="830" y="102" width="90" height="30" as="geometry" />
        </mxCell>
        <mxCell id="anGM7aMK89ea6Gd5aUln-46" value="0..1" style="text;html=1;strokeColor=none;fillColor=none;align=center;verticalAlign=middle;whiteSpace=wrap;rounded=0;" parent="1" vertex="1">
          <mxGeometry x="900" y="190" width="60" height="30" as="geometry" />
        </mxCell>
        <mxCell id="anGM7aMK89ea6Gd5aUln-57" style="edgeStyle=orthogonalEdgeStyle;rounded=0;orthogonalLoop=1;jettySize=auto;html=1;entryX=1.025;entryY=0.5;entryDx=0;entryDy=0;entryPerimeter=0;endArrow=none;endFill=0;" parent="1" source="anGM7aMK89ea6Gd5aUln-47" target="SxB-an0MRpLHH-OonoaN-1" edge="1">
          <mxGeometry relative="1" as="geometry">
            <mxPoint x="-580" y="260" as="targetPoint" />
            <Array as="points">
              <mxPoint x="-520" y="772" />
              <mxPoint x="-520" y="251" />
            </Array>
          </mxGeometry>
        </mxCell>
        <mxCell id="anGM7aMK89ea6Gd5aUln-47" value="Foglio Riepilogativo" style="swimlane;fontStyle=2;align=center;verticalAlign=top;childLayout=stackLayout;horizontal=1;startSize=26;horizontalStack=0;resizeParent=1;resizeLast=0;collapsible=1;marginBottom=0;rounded=0;shadow=0;strokeWidth=1;fillColor=default;strokeColor=default;" parent="1" vertex="1">
          <mxGeometry x="150" y="690" width="160" height="164" as="geometry">
            <mxRectangle x="230" y="140" width="160" height="26" as="alternateBounds" />
          </mxGeometry>
        </mxCell>
        <mxCell id="anGM7aMK89ea6Gd5aUln-49" style="edgeStyle=orthogonalEdgeStyle;rounded=0;orthogonalLoop=1;jettySize=auto;html=1;entryX=1;entryY=0.5;entryDx=0;entryDy=0;startArrow=none;startFill=0;endArrow=diamondThin;endFill=1;" parent="1" target="anGM7aMK89ea6Gd5aUln-47" edge="1">
          <mxGeometry relative="1" as="geometry">
            <mxPoint x="690" y="650" as="targetPoint" />
            <mxPoint x="760" y="342" as="sourcePoint" />
            <Array as="points">
              <mxPoint x="690" y="342" />
              <mxPoint x="690" y="772" />
            </Array>
          </mxGeometry>
        </mxCell>
        <mxCell id="anGM7aMK89ea6Gd5aUln-50" value="Composto da" style="text;html=1;strokeColor=none;fillColor=none;align=center;verticalAlign=middle;whiteSpace=wrap;rounded=0;" parent="1" vertex="1">
          <mxGeometry x="690" y="560" width="80" height="30" as="geometry" />
        </mxCell>
        <mxCell id="anGM7aMK89ea6Gd5aUln-51" value="0..n" style="text;html=1;strokeColor=none;fillColor=none;align=center;verticalAlign=middle;whiteSpace=wrap;rounded=0;" parent="1" vertex="1">
          <mxGeometry x="700" y="348" width="60" height="30" as="geometry" />
        </mxCell>
        <mxCell id="anGM7aMK89ea6Gd5aUln-52" value="1" style="text;html=1;strokeColor=none;fillColor=none;align=center;verticalAlign=middle;whiteSpace=wrap;rounded=0;" parent="1" vertex="1">
          <mxGeometry x="690" y="630" width="60" height="30" as="geometry" />
        </mxCell>
        <mxCell id="anGM7aMK89ea6Gd5aUln-53" value="" style="triangle;whiteSpace=wrap;html=1;rotation=-90;fillColor=#dae8fc;strokeColor=#6c8ebf;" parent="1" vertex="1">
          <mxGeometry x="715" y="545" width="10" height="20" as="geometry" />
        </mxCell>
        <mxCell id="anGM7aMK89ea6Gd5aUln-58" value="Contiene compiti di" style="text;html=1;strokeColor=none;fillColor=none;align=center;verticalAlign=middle;whiteSpace=wrap;rounded=0;" parent="1" vertex="1">
          <mxGeometry x="-300" y="730" width="150" height="30" as="geometry" />
        </mxCell>
        <mxCell id="anGM7aMK89ea6Gd5aUln-59" value="" style="triangle;whiteSpace=wrap;html=1;rotation=-180;fillColor=#dae8fc;strokeColor=#6c8ebf;" parent="1" vertex="1">
          <mxGeometry x="-300" y="735" width="10" height="20" as="geometry" />
        </mxCell>
        <mxCell id="anGM7aMK89ea6Gd5aUln-60" value="1" style="text;html=1;strokeColor=none;fillColor=none;align=center;verticalAlign=middle;whiteSpace=wrap;rounded=0;" parent="1" vertex="1">
          <mxGeometry x="-1100" y="132" width="60" height="30" as="geometry" />
        </mxCell>
        <mxCell id="anGM7aMK89ea6Gd5aUln-61" value="0..1" style="text;html=1;strokeColor=none;fillColor=none;align=center;verticalAlign=middle;whiteSpace=wrap;rounded=0;" parent="1" vertex="1">
          <mxGeometry x="80" y="735" width="60" height="30" as="geometry" />
        </mxCell>
        <mxCell id="anGM7aMK89ea6Gd5aUln-62" value="Tabellone Turni" style="swimlane;fontStyle=0;childLayout=stackLayout;horizontal=1;startSize=26;fillColor=none;horizontalStack=0;resizeParent=1;resizeParentMax=0;resizeLast=0;collapsible=1;marginBottom=0;whiteSpace=wrap;html=1;" parent="1" vertex="1">
          <mxGeometry x="1470" y="570" width="140" height="52" as="geometry" />
        </mxCell>
        <mxCell id="anGM7aMK89ea6Gd5aUln-64" value="Composto da" style="text;html=1;strokeColor=none;fillColor=none;align=center;verticalAlign=middle;whiteSpace=wrap;rounded=0;" parent="1" vertex="1">
          <mxGeometry x="1540" y="375" width="90" height="30" as="geometry" />
        </mxCell>
        <mxCell id="anGM7aMK89ea6Gd5aUln-70" value="" style="triangle;whiteSpace=wrap;html=1;rotation=90;fillColor=#dae8fc;strokeColor=#6c8ebf;" parent="1" vertex="1">
          <mxGeometry x="1580" y="397" width="10" height="20" as="geometry" />
        </mxCell>
        <mxCell id="anGM7aMK89ea6Gd5aUln-71" value="0..n" style="text;html=1;strokeColor=none;fillColor=none;align=center;verticalAlign=middle;whiteSpace=wrap;rounded=0;" parent="1" vertex="1">
          <mxGeometry x="1221" y="-36" width="40" height="20" as="geometry" />
        </mxCell>
        <mxCell id="anGM7aMK89ea6Gd5aUln-72" value="1" style="text;html=1;strokeColor=none;fillColor=none;align=center;verticalAlign=middle;whiteSpace=wrap;rounded=0;" parent="1" vertex="1">
          <mxGeometry x="1545" y="545" width="40" height="20" as="geometry" />
        </mxCell>
        <mxCell id="anGM7aMK89ea6Gd5aUln-78" style="edgeStyle=orthogonalEdgeStyle;rounded=0;orthogonalLoop=1;jettySize=auto;html=1;entryX=1;entryY=0.5;entryDx=0;entryDy=0;endArrow=none;endFill=0;" parent="1" source="anGM7aMK89ea6Gd5aUln-73" edge="1">
          <mxGeometry relative="1" as="geometry">
            <Array as="points">
              <mxPoint x="80" y="616" />
            </Array>
            <mxPoint x="80" y="624" as="targetPoint" />
          </mxGeometry>
        </mxCell>
        <mxCell id="anGM7aMK89ea6Gd5aUln-73" value="Mansione di Cucina" style="swimlane;fontStyle=0;childLayout=stackLayout;horizontal=1;startSize=26;horizontalStack=0;resizeParent=1;resizeParentMax=0;resizeLast=0;collapsible=1;marginBottom=0;labelBackgroundColor=none;fillColor=default;strokeColor=default;" parent="1" vertex="1">
          <mxGeometry x="274" y="590" width="140" height="52" as="geometry" />
        </mxCell>
        <mxCell id="anGM7aMK89ea6Gd5aUln-76" value="Si trova in" style="text;html=1;strokeColor=none;fillColor=none;align=center;verticalAlign=middle;whiteSpace=wrap;rounded=0;" parent="1" vertex="1">
          <mxGeometry x="160" y="615" width="60" height="30" as="geometry" />
        </mxCell>
        <mxCell id="anGM7aMK89ea6Gd5aUln-77" value="" style="triangle;whiteSpace=wrap;html=1;rotation=-180;fillColor=#dae8fc;strokeColor=#6c8ebf;" parent="1" vertex="1">
          <mxGeometry x="140" y="620" width="10" height="20" as="geometry" />
        </mxCell>
        <mxCell id="anGM7aMK89ea6Gd5aUln-80" value="1" style="text;html=1;strokeColor=none;fillColor=none;align=center;verticalAlign=middle;whiteSpace=wrap;rounded=0;" parent="1" vertex="1">
          <mxGeometry x="85" y="590" width="60" height="30" as="geometry" />
        </mxCell>
        <mxCell id="anGM7aMK89ea6Gd5aUln-81" value="0..n" style="text;html=1;strokeColor=none;fillColor=none;align=center;verticalAlign=middle;whiteSpace=wrap;rounded=0;" parent="1" vertex="1">
          <mxGeometry x="210" y="585" width="60" height="30" as="geometry" />
        </mxCell>
        <mxCell id="anGM7aMK89ea6Gd5aUln-84" value="0..1" style="resizable=0;html=1;align=right;verticalAlign=top;labelBackgroundColor=none;" parent="1" connectable="0" vertex="1">
          <mxGeometry x="550.0000727228321" y="474.00660352997784" as="geometry" />
        </mxCell>
        <mxCell id="anGM7aMK89ea6Gd5aUln-96" style="edgeStyle=orthogonalEdgeStyle;rounded=0;orthogonalLoop=1;jettySize=auto;html=1;entryX=1;entryY=0;entryDx=0;entryDy=0;endArrow=diamondThin;endFill=1;startArrow=none;startFill=0;" parent="1" source="anGM7aMK89ea6Gd5aUln-85" target="anGM7aMK89ea6Gd5aUln-73" edge="1">
          <mxGeometry relative="1" as="geometry" />
        </mxCell>
        <mxCell id="anGM7aMK89ea6Gd5aUln-85" value="Preparazione" style="swimlane;fontStyle=0;childLayout=stackLayout;horizontal=1;startSize=26;horizontalStack=0;resizeParent=1;resizeParentMax=0;resizeLast=0;collapsible=1;marginBottom=0;labelBackgroundColor=none;" parent="1" vertex="1">
          <mxGeometry x="470" y="474" width="140" height="52" as="geometry" />
        </mxCell>
        <mxCell id="anGM7aMK89ea6Gd5aUln-87" value="" style="endArrow=block;endSize=16;endFill=0;html=1;rounded=0;exitX=0;exitY=0.5;exitDx=0;exitDy=0;" parent="1" target="anGM7aMK89ea6Gd5aUln-73" edge="1">
          <mxGeometry width="160" relative="1" as="geometry">
            <mxPoint x="470" y="399" as="sourcePoint" />
            <mxPoint x="400" y="580" as="targetPoint" />
            <Array as="points">
              <mxPoint x="344" y="399" />
              <mxPoint x="344" y="500" />
            </Array>
          </mxGeometry>
        </mxCell>
        <mxCell id="anGM7aMK89ea6Gd5aUln-90" value="" style="endArrow=none;endFill=0;endSize=12;html=1;rounded=0;startArrow=none;startFill=0;exitX=0.5;exitY=0;exitDx=0;exitDy=0;" parent="1" source="anGM7aMK89ea6Gd5aUln-85" edge="1">
          <mxGeometry width="160" relative="1" as="geometry">
            <mxPoint x="540" y="470" as="sourcePoint" />
            <mxPoint x="340" y="440" as="targetPoint" />
            <Array as="points">
              <mxPoint x="540" y="440" />
              <mxPoint x="440" y="440" />
            </Array>
          </mxGeometry>
        </mxCell>
        <mxCell id="anGM7aMK89ea6Gd5aUln-91" style="edgeStyle=orthogonalEdgeStyle;rounded=0;orthogonalLoop=1;jettySize=auto;html=1;entryX=1;entryY=0.5;entryDx=0;entryDy=0;endArrow=none;endFill=0;" parent="1" source="anGM7aMK89ea6Gd5aUln-17" target="anGM7aMK89ea6Gd5aUln-73" edge="1">
          <mxGeometry relative="1" as="geometry">
            <Array as="points">
              <mxPoint x="660" y="312" />
              <mxPoint x="660" y="616" />
            </Array>
          </mxGeometry>
        </mxCell>
        <mxCell id="anGM7aMK89ea6Gd5aUln-92" value="Consiste in" style="text;html=1;strokeColor=none;fillColor=none;align=center;verticalAlign=middle;whiteSpace=wrap;rounded=0;" parent="1" vertex="1">
          <mxGeometry x="500" y="620" width="80" height="30" as="geometry" />
        </mxCell>
        <mxCell id="anGM7aMK89ea6Gd5aUln-93" value="" style="triangle;whiteSpace=wrap;html=1;rotation=-180;fillColor=#dae8fc;strokeColor=#6c8ebf;" parent="1" vertex="1">
          <mxGeometry x="490" y="625" width="10" height="20" as="geometry" />
        </mxCell>
        <mxCell id="anGM7aMK89ea6Gd5aUln-94" value="1" style="text;html=1;strokeColor=none;fillColor=none;align=center;verticalAlign=middle;whiteSpace=wrap;rounded=0;" parent="1" vertex="1">
          <mxGeometry x="420" y="625" width="60" height="30" as="geometry" />
        </mxCell>
        <mxCell id="anGM7aMK89ea6Gd5aUln-95" value="1" style="text;html=1;strokeColor=none;fillColor=none;align=center;verticalAlign=middle;whiteSpace=wrap;rounded=0;" parent="1" vertex="1">
          <mxGeometry x="700" y="280" width="60" height="30" as="geometry" />
        </mxCell>
        <mxCell id="anGM7aMK89ea6Gd5aUln-97" value="Ingrediente in" style="text;html=1;strokeColor=none;fillColor=none;align=center;verticalAlign=middle;whiteSpace=wrap;rounded=0;" parent="1" vertex="1">
          <mxGeometry x="420" y="540" width="90" height="30" as="geometry" />
        </mxCell>
        <mxCell id="anGM7aMK89ea6Gd5aUln-98" value="0..n" style="text;html=1;strokeColor=none;fillColor=none;align=center;verticalAlign=middle;whiteSpace=wrap;rounded=0;" parent="1" vertex="1">
          <mxGeometry x="410" y="470" width="60" height="30" as="geometry" />
        </mxCell>
        <mxCell id="anGM7aMK89ea6Gd5aUln-99" value="0..n" style="text;html=1;strokeColor=none;fillColor=none;align=center;verticalAlign=middle;whiteSpace=wrap;rounded=0;" parent="1" vertex="1">
          <mxGeometry x="410" y="570" width="60" height="30" as="geometry" />
        </mxCell>
        <mxCell id="anGM7aMK89ea6Gd5aUln-104" value="0..n" style="text;html=1;strokeColor=none;fillColor=none;align=center;verticalAlign=middle;whiteSpace=wrap;rounded=0;" parent="1" vertex="1">
          <mxGeometry x="250" y="540" width="60" height="30" as="geometry" />
        </mxCell>
        <mxCell id="anGM7aMK89ea6Gd5aUln-105" value="1" style="text;html=1;strokeColor=none;fillColor=none;align=center;verticalAlign=middle;whiteSpace=wrap;rounded=0;" parent="1" vertex="1">
          <mxGeometry x="310" y="780" width="60" height="30" as="geometry" />
        </mxCell>
        <mxCell id="xD5BY9tJC-6fg_E8GgrS-2" style="edgeStyle=orthogonalEdgeStyle;rounded=0;orthogonalLoop=1;jettySize=auto;html=1;endArrow=none;endFill=0;entryX=0.5;entryY=0;entryDx=0;entryDy=0;" parent="1" source="xD5BY9tJC-6fg_E8GgrS-1" target="78LwuEahcBiL7WYBxUG0-11" edge="1">
          <mxGeometry relative="1" as="geometry">
            <Array as="points">
              <mxPoint x="-1070" y="164" />
              <mxPoint x="-1070" y="430" />
            </Array>
            <mxPoint x="-380" y="410" as="targetPoint" />
          </mxGeometry>
        </mxCell>
        <mxCell id="xD5BY9tJC-6fg_E8GgrS-1" value="Cliente" style="swimlane;fontStyle=0;align=center;verticalAlign=top;childLayout=stackLayout;horizontal=1;startSize=26;horizontalStack=0;resizeParent=1;resizeLast=0;collapsible=1;marginBottom=0;rounded=0;shadow=0;strokeWidth=1;" parent="1" vertex="1">
          <mxGeometry x="-1040" y="83.67" width="160" height="160" as="geometry">
            <mxRectangle x="550" y="140" width="160" height="26" as="alternateBounds" />
          </mxGeometry>
        </mxCell>
        <mxCell id="xD5BY9tJC-6fg_E8GgrS-5" value="Commissiona" style="text;html=1;strokeColor=none;fillColor=none;align=center;verticalAlign=middle;whiteSpace=wrap;rounded=0;" parent="1" vertex="1">
          <mxGeometry x="-1060" y="286" width="90" height="30" as="geometry" />
        </mxCell>
        <mxCell id="xD5BY9tJC-6fg_E8GgrS-6" value="" style="triangle;whiteSpace=wrap;html=1;rotation=0;fillColor=#dae8fc;strokeColor=#6c8ebf;" parent="1" vertex="1">
          <mxGeometry x="-970" y="287" width="10" height="24" as="geometry" />
        </mxCell>
        <mxCell id="xD5BY9tJC-6fg_E8GgrS-10" style="edgeStyle=orthogonalEdgeStyle;rounded=0;orthogonalLoop=1;jettySize=auto;html=1;entryX=1;entryY=1;entryDx=0;entryDy=0;endArrow=none;endFill=0;" parent="1" source="xD5BY9tJC-6fg_E8GgrS-9" target="RYqYyBbi1srDDAzu_ijg-12" edge="1">
          <mxGeometry relative="1" as="geometry">
            <Array as="points">
              <mxPoint x="1220" y="540" />
              <mxPoint x="1220" y="540" />
            </Array>
            <mxPoint x="1296.2800000000002" y="458.34000000000003" as="targetPoint" />
          </mxGeometry>
        </mxCell>
        <mxCell id="xD5BY9tJC-6fg_E8GgrS-9" value="Membro del personale" style="swimlane;fontStyle=0;childLayout=stackLayout;horizontal=1;startSize=26;fillColor=default;horizontalStack=0;resizeParent=1;resizeParentMax=0;resizeLast=0;collapsible=1;marginBottom=0;whiteSpace=wrap;html=1;strokeColor=default;" parent="1" vertex="1">
          <mxGeometry x="1210" y="545" width="140" height="52" as="geometry" />
        </mxCell>
        <mxCell id="xD5BY9tJC-6fg_E8GgrS-13" style="edgeStyle=orthogonalEdgeStyle;rounded=0;orthogonalLoop=1;jettySize=auto;html=1;endArrow=none;endFill=0;" parent="1" source="xD5BY9tJC-6fg_E8GgrS-12" edge="1">
          <mxGeometry relative="1" as="geometry">
            <mxPoint x="1040" y="619" as="targetPoint" />
          </mxGeometry>
        </mxCell>
        <mxCell id="xD5BY9tJC-6fg_E8GgrS-12" value="Membro del personale di servizio" style="swimlane;fontStyle=0;childLayout=stackLayout;horizontal=1;startSize=26;fillColor=default;horizontalStack=0;resizeParent=1;resizeParentMax=0;resizeLast=0;collapsible=1;marginBottom=0;whiteSpace=wrap;html=1;strokeColor=default;" parent="1" vertex="1">
          <mxGeometry x="770" y="593" width="175" height="52" as="geometry" />
        </mxCell>
        <mxCell id="xD5BY9tJC-6fg_E8GgrS-16" value="" style="endArrow=block;endSize=16;endFill=0;html=1;rounded=0;entryX=0;entryY=0.5;entryDx=0;entryDy=0;" parent="1" target="xD5BY9tJC-6fg_E8GgrS-9" edge="1">
          <mxGeometry width="160" relative="1" as="geometry">
            <mxPoint x="1040" y="570" as="sourcePoint" />
            <mxPoint x="800" y="410" as="targetPoint" />
          </mxGeometry>
        </mxCell>
        <mxCell id="zDaDTRGFYudbighkzYUH-4" value="Evento Capofila" style="swimlane;fontStyle=0;childLayout=stackLayout;horizontal=1;startSize=26;horizontalStack=0;resizeParent=1;resizeParentMax=0;resizeLast=0;collapsible=1;marginBottom=0;labelBackgroundColor=none;" parent="1" vertex="1">
          <mxGeometry x="-1370" y="834" width="240" height="98" as="geometry" />
        </mxCell>
        <mxCell id="zDaDTRGFYudbighkzYUH-23" value="/NumeroOccorrenze: Numero [0..1]" style="text;strokeColor=none;fillColor=none;align=left;verticalAlign=top;spacingLeft=4;spacingRight=4;overflow=hidden;rotatable=0;points=[[0,0.5],[1,0.5]];portConstraint=eastwest;labelBackgroundColor=none;fontColor=#000000;" parent="zDaDTRGFYudbighkzYUH-4" vertex="1">
          <mxGeometry y="26" width="240" height="24" as="geometry" />
        </mxCell>
        <mxCell id="zDaDTRGFYudbighkzYUH-22" value="DataFineRicorrenza: Testo [0..1]" style="text;strokeColor=none;fillColor=none;align=left;verticalAlign=top;spacingLeft=4;spacingRight=4;overflow=hidden;rotatable=0;points=[[0,0.5],[1,0.5]];portConstraint=eastwest;labelBackgroundColor=none;fontColor=#000000;" parent="zDaDTRGFYudbighkzYUH-4" vertex="1">
          <mxGeometry y="50" width="240" height="24" as="geometry" />
        </mxCell>
        <mxCell id="-Tsge1zEhWYLcT9jv_F0-1" value="Periodo: Testo" style="text;strokeColor=none;fillColor=none;align=left;verticalAlign=top;spacingLeft=4;spacingRight=4;overflow=hidden;rotatable=0;points=[[0,0.5],[1,0.5]];portConstraint=eastwest;labelBackgroundColor=none;fontColor=#000000;" parent="zDaDTRGFYudbighkzYUH-4" vertex="1">
          <mxGeometry y="74" width="240" height="24" as="geometry" />
        </mxCell>
        <mxCell id="zDaDTRGFYudbighkzYUH-11" value="Occorrenza" style="swimlane;fontStyle=0;childLayout=stackLayout;horizontal=1;startSize=26;horizontalStack=0;resizeParent=1;resizeParentMax=0;resizeLast=0;collapsible=1;marginBottom=0;labelBackgroundColor=none;" parent="1" vertex="1">
          <mxGeometry x="-890" y="847" width="240" height="56" as="geometry" />
        </mxCell>
        <mxCell id="ZpdeFqUQ0TS1zbbP-Vvf-1" value="Composto da" style="text;html=1;strokeColor=none;fillColor=none;align=center;verticalAlign=middle;whiteSpace=wrap;rounded=0;" parent="1" vertex="1">
          <mxGeometry x="-1060" y="852" width="80" height="20" as="geometry" />
        </mxCell>
        <mxCell id="ZpdeFqUQ0TS1zbbP-Vvf-2" value="" style="triangle;whiteSpace=wrap;html=1;rotation=0;fillColor=#dae8fc;strokeColor=#6c8ebf;" parent="1" vertex="1">
          <mxGeometry x="-980" y="853" width="10" height="19" as="geometry" />
        </mxCell>
        <mxCell id="ZpdeFqUQ0TS1zbbP-Vvf-3" value="0..n" style="text;html=1;strokeColor=none;fillColor=none;align=center;verticalAlign=middle;whiteSpace=wrap;rounded=0;" parent="1" vertex="1">
          <mxGeometry x="-950" y="847" width="50" height="20" as="geometry" />
        </mxCell>
        <mxCell id="ZpdeFqUQ0TS1zbbP-Vvf-5" value="1" style="text;html=1;strokeColor=none;fillColor=none;align=center;verticalAlign=middle;whiteSpace=wrap;rounded=0;" parent="1" vertex="1">
          <mxGeometry x="-1120" y="853" width="50" height="20" as="geometry" />
        </mxCell>
        <mxCell id="ZpdeFqUQ0TS1zbbP-Vvf-6" value="" style="endArrow=diamondThin;endFill=1;endSize=24;html=1;rounded=0;entryX=1;entryY=0.958;entryDx=0;entryDy=0;entryPerimeter=0;" parent="1" target="zDaDTRGFYudbighkzYUH-23" edge="1">
          <mxGeometry width="160" relative="1" as="geometry">
            <mxPoint x="-890" y="883" as="sourcePoint" />
            <mxPoint x="-600" y="607" as="targetPoint" />
          </mxGeometry>
        </mxCell>
        <mxCell id="ZpdeFqUQ0TS1zbbP-Vvf-8" value="" style="endArrow=block;endSize=16;endFill=0;html=1;rounded=0;exitX=0.5;exitY=0;exitDx=0;exitDy=0;entryX=0.5;entryY=1;entryDx=0;entryDy=0;" parent="1" source="zDaDTRGFYudbighkzYUH-4" target="Vy3BGtT5b-SCxXcEpdcU-2" edge="1">
          <mxGeometry width="160" relative="1" as="geometry">
            <mxPoint x="-480" y="300" as="sourcePoint" />
            <mxPoint x="-1090" y="620" as="targetPoint" />
            <Array as="points">
              <mxPoint x="-1250" y="740" />
              <mxPoint x="-1060" y="740" />
            </Array>
          </mxGeometry>
        </mxCell>
        <mxCell id="ZpdeFqUQ0TS1zbbP-Vvf-10" style="edgeStyle=orthogonalEdgeStyle;rounded=0;orthogonalLoop=1;jettySize=auto;html=1;endArrow=none;endFill=0;" parent="1" target="zDaDTRGFYudbighkzYUH-11" edge="1">
          <mxGeometry relative="1" as="geometry">
            <mxPoint x="-1090" y="740" as="sourcePoint" />
          </mxGeometry>
        </mxCell>
        <mxCell id="oxdjgIhrxHPVCNlO7wQB-3" value="" style="triangle;whiteSpace=wrap;html=1;rotation=-179;fillColor=#dae8fc;strokeColor=#6c8ebf;" parent="1" vertex="1">
          <mxGeometry x="350" y="-30.09" width="15" height="20" as="geometry" />
        </mxCell>
        <mxCell id="RYqYyBbi1srDDAzu_ijg-13" style="edgeStyle=orthogonalEdgeStyle;rounded=0;orthogonalLoop=1;jettySize=auto;html=1;entryX=0.5;entryY=0;entryDx=0;entryDy=0;endArrow=none;endFill=0;exitX=0;exitY=0.5;exitDx=0;exitDy=0;" parent="1" source="oxdjgIhrxHPVCNlO7wQB-11" target="anGM7aMK89ea6Gd5aUln-1" edge="1">
          <mxGeometry relative="1" as="geometry">
            <Array as="points">
              <mxPoint x="1080" y="10" />
              <mxPoint x="-720" y="10" />
            </Array>
          </mxGeometry>
        </mxCell>
        <mxCell id="RYqYyBbi1srDDAzu_ijg-17" style="edgeStyle=orthogonalEdgeStyle;rounded=0;orthogonalLoop=1;jettySize=auto;html=1;entryX=0.25;entryY=0;entryDx=0;entryDy=0;endArrow=none;endFill=0;" parent="1" source="oxdjgIhrxHPVCNlO7wQB-10" target="anGM7aMK89ea6Gd5aUln-24" edge="1">
          <mxGeometry relative="1" as="geometry" />
        </mxCell>
        <mxCell id="oxdjgIhrxHPVCNlO7wQB-10" value="Disponibilità" style="swimlane;fontStyle=0;childLayout=stackLayout;horizontal=1;startSize=26;fillColor=default;horizontalStack=0;resizeParent=1;resizeParentMax=0;resizeLast=0;collapsible=1;marginBottom=0;whiteSpace=wrap;html=1;strokeColor=default;" parent="1" vertex="1">
          <mxGeometry x="1080" y="-36" width="140" height="86" as="geometry" />
        </mxCell>
        <mxCell id="oxdjgIhrxHPVCNlO7wQB-11" value="Prenotato: Sì/No" style="text;html=1;strokeColor=none;fillColor=none;align=center;verticalAlign=middle;whiteSpace=wrap;rounded=0;" parent="oxdjgIhrxHPVCNlO7wQB-10" vertex="1">
          <mxGeometry y="26" width="140" height="30" as="geometry" />
        </mxCell>
        <mxCell id="RYqYyBbi1srDDAzu_ijg-12" value="Ruolo: Testo" style="text;html=1;strokeColor=none;fillColor=none;align=center;verticalAlign=middle;whiteSpace=wrap;rounded=0;" parent="oxdjgIhrxHPVCNlO7wQB-10" vertex="1">
          <mxGeometry y="56" width="140" height="30" as="geometry" />
        </mxCell>
        <mxCell id="RYqYyBbi1srDDAzu_ijg-5" style="edgeStyle=orthogonalEdgeStyle;rounded=0;orthogonalLoop=1;jettySize=auto;html=1;entryX=0;entryY=0;entryDx=0;entryDy=0;endArrow=none;endFill=0;" parent="1" source="RYqYyBbi1srDDAzu_ijg-4" target="78LwuEahcBiL7WYBxUG0-11" edge="1">
          <mxGeometry relative="1" as="geometry">
            <Array as="points">
              <mxPoint x="-1290" y="430" />
            </Array>
          </mxGeometry>
        </mxCell>
        <mxCell id="RYqYyBbi1srDDAzu_ijg-18" style="edgeStyle=orthogonalEdgeStyle;rounded=0;orthogonalLoop=1;jettySize=auto;html=1;entryX=0.5;entryY=1;entryDx=0;entryDy=0;endArrow=none;endFill=0;" parent="1" source="RYqYyBbi1srDDAzu_ijg-4" target="RYqYyBbi1srDDAzu_ijg-12" edge="1">
          <mxGeometry relative="1" as="geometry">
            <Array as="points">
              <mxPoint x="-1410" y="160" />
              <mxPoint x="-1410" y="970" />
              <mxPoint x="1090" y="970" />
            </Array>
          </mxGeometry>
        </mxCell>
        <mxCell id="RYqYyBbi1srDDAzu_ijg-4" value="Organizzatore" style="swimlane;fontStyle=0;align=center;verticalAlign=top;childLayout=stackLayout;horizontal=1;startSize=26;horizontalStack=0;resizeParent=1;resizeLast=0;collapsible=1;marginBottom=0;rounded=0;shadow=0;strokeWidth=1;" parent="1" vertex="1">
          <mxGeometry x="-1320" y="83.67" width="160" height="160" as="geometry">
            <mxRectangle x="550" y="140" width="160" height="26" as="alternateBounds" />
          </mxGeometry>
        </mxCell>
        <mxCell id="RYqYyBbi1srDDAzu_ijg-7" value="0..n" style="text;html=1;strokeColor=none;fillColor=none;align=center;verticalAlign=middle;whiteSpace=wrap;rounded=0;" parent="1" vertex="1">
          <mxGeometry x="-1060" y="373.5" width="40" height="25" as="geometry" />
        </mxCell>
        <mxCell id="RYqYyBbi1srDDAzu_ijg-8" value="0..n" style="text;html=1;strokeColor=none;fillColor=none;align=center;verticalAlign=middle;whiteSpace=wrap;rounded=0;" parent="1" vertex="1">
          <mxGeometry x="-1180" y="407" width="40" height="16" as="geometry" />
        </mxCell>
        <mxCell id="RYqYyBbi1srDDAzu_ijg-9" value="0..n" style="text;html=1;strokeColor=none;fillColor=none;align=center;verticalAlign=middle;whiteSpace=wrap;rounded=0;" parent="1" vertex="1">
          <mxGeometry x="-775" y="270" width="60" height="30" as="geometry" />
        </mxCell>
        <mxCell id="RYqYyBbi1srDDAzu_ijg-10" value="Organizza" style="text;html=1;strokeColor=none;fillColor=none;align=center;verticalAlign=middle;whiteSpace=wrap;rounded=0;" parent="1" vertex="1">
          <mxGeometry x="-1290" y="440" width="90" height="30" as="geometry" />
        </mxCell>
        <mxCell id="RYqYyBbi1srDDAzu_ijg-11" value="" style="triangle;whiteSpace=wrap;html=1;rotation=0;fillColor=#dae8fc;strokeColor=#6c8ebf;" parent="1" vertex="1">
          <mxGeometry x="-1200" y="441" width="10" height="24" as="geometry" />
        </mxCell>
        <mxCell id="RYqYyBbi1srDDAzu_ijg-15" value="0..1" style="text;html=1;strokeColor=none;fillColor=none;align=center;verticalAlign=middle;whiteSpace=wrap;rounded=0;" parent="1" vertex="1">
          <mxGeometry x="-690" y="-30.09" width="60" height="30" as="geometry" />
        </mxCell>
        <mxCell id="RYqYyBbi1srDDAzu_ijg-16" value="0..n" style="text;html=1;strokeColor=none;fillColor=none;align=center;verticalAlign=middle;whiteSpace=wrap;rounded=0;" parent="1" vertex="1">
          <mxGeometry x="1030" y="-20" width="60" height="30" as="geometry" />
        </mxCell>
        <mxCell id="RYqYyBbi1srDDAzu_ijg-19" value="prenotazione" style="text;html=1;strokeColor=none;fillColor=none;align=center;verticalAlign=middle;whiteSpace=wrap;rounded=0;" parent="1" vertex="1">
          <mxGeometry x="930" y="970" width="100" height="30" as="geometry" />
        </mxCell>
        <mxCell id="RYqYyBbi1srDDAzu_ijg-20" value="" style="triangle;whiteSpace=wrap;html=1;rotation=0;fillColor=#dae8fc;strokeColor=#6c8ebf;" parent="1" vertex="1">
          <mxGeometry x="1020" y="975" width="10" height="20" as="geometry" />
        </mxCell>
        <mxCell id="RYqYyBbi1srDDAzu_ijg-21" value="0..n" style="text;html=1;strokeColor=none;fillColor=none;align=center;verticalAlign=middle;whiteSpace=wrap;rounded=0;" parent="1" vertex="1">
          <mxGeometry x="870" y="975" width="60" height="30" as="geometry" />
        </mxCell>
        <mxCell id="RYqYyBbi1srDDAzu_ijg-22" value="0..1" style="text;html=1;strokeColor=none;fillColor=none;align=center;verticalAlign=middle;whiteSpace=wrap;rounded=0;" parent="1" vertex="1">
          <mxGeometry x="1045" y="975" width="60" height="30" as="geometry" />
        </mxCell>
        <mxCell id="RYqYyBbi1srDDAzu_ijg-23" value="riferita a" style="text;html=1;strokeColor=none;fillColor=none;align=center;verticalAlign=middle;whiteSpace=wrap;rounded=0;" parent="1" vertex="1">
          <mxGeometry x="1515" y="40" width="60" height="30" as="geometry" />
        </mxCell>
        <mxCell id="RYqYyBbi1srDDAzu_ijg-26" value="" style="triangle;whiteSpace=wrap;html=1;rotation=90;fillColor=#dae8fc;strokeColor=#6c8ebf;" parent="1" vertex="1">
          <mxGeometry x="1540" y="60" width="10" height="23.67" as="geometry" />
        </mxCell>
        <mxCell id="RYqYyBbi1srDDAzu_ijg-27" value="1" style="text;html=1;strokeColor=none;fillColor=none;align=center;verticalAlign=middle;whiteSpace=wrap;rounded=0;" parent="1" vertex="1">
          <mxGeometry x="1510" y="93.67" width="60" height="30" as="geometry" />
        </mxCell>
        <mxCell id="RYqYyBbi1srDDAzu_ijg-28" value="0..n" style="text;html=1;strokeColor=none;fillColor=none;align=center;verticalAlign=middle;whiteSpace=wrap;rounded=0;" parent="1" vertex="1">
          <mxGeometry x="1145" y="53.670000000000016" width="60" height="30" as="geometry" />
        </mxCell>
        <mxCell id="RYqYyBbi1srDDAzu_ijg-30" value="offre" style="text;html=1;strokeColor=none;fillColor=none;align=center;verticalAlign=middle;whiteSpace=wrap;rounded=0;" parent="1" vertex="1">
          <mxGeometry x="1166" y="241.00000000000003" width="55" height="10" as="geometry" />
        </mxCell>
        <mxCell id="RYqYyBbi1srDDAzu_ijg-31" value="0..n" style="text;html=1;strokeColor=none;fillColor=none;align=center;verticalAlign=middle;whiteSpace=wrap;rounded=0;" parent="1" vertex="1">
          <mxGeometry x="1310" y="500" width="60" height="30" as="geometry" />
        </mxCell>
        <mxCell id="VZPHV5qA_Ss-NTKiFyPM-5" style="edgeStyle=orthogonalEdgeStyle;rounded=0;orthogonalLoop=1;jettySize=auto;html=1;entryX=0.25;entryY=0;entryDx=0;entryDy=0;endArrow=none;endFill=0;" parent="1" source="VZPHV5qA_Ss-NTKiFyPM-2" target="anGM7aMK89ea6Gd5aUln-1" edge="1">
          <mxGeometry relative="1" as="geometry" />
        </mxCell>
        <mxCell id="VZPHV5qA_Ss-NTKiFyPM-2" value="Proposta Modifica" style="swimlane;fontStyle=0;align=center;verticalAlign=top;childLayout=stackLayout;horizontal=1;startSize=26;horizontalStack=0;resizeParent=1;resizeLast=0;collapsible=1;marginBottom=0;rounded=0;shadow=0;strokeWidth=1;" parent="1" vertex="1">
          <mxGeometry x="400" y="-250" width="130" height="86" as="geometry">
            <mxRectangle x="550" y="140" width="160" height="26" as="alternateBounds" />
          </mxGeometry>
        </mxCell>
        <mxCell id="VZPHV5qA_Ss-NTKiFyPM-3" value="Commento: Testo" style="text;strokeColor=none;fillColor=none;align=left;verticalAlign=top;spacingLeft=4;spacingRight=4;overflow=hidden;rotatable=0;points=[[0,0.5],[1,0.5]];portConstraint=eastwest;labelBackgroundColor=none;fontColor=#000000;" parent="VZPHV5qA_Ss-NTKiFyPM-2" vertex="1">
          <mxGeometry y="26" width="130" height="24" as="geometry" />
        </mxCell>
        <mxCell id="VZPHV5qA_Ss-NTKiFyPM-4" value="Accettata: Sì/No [0..1]" style="text;strokeColor=none;fillColor=none;align=left;verticalAlign=top;spacingLeft=4;spacingRight=4;overflow=hidden;rotatable=0;points=[[0,0.5],[1,0.5]];portConstraint=eastwest;labelBackgroundColor=none;fontColor=#000000;" parent="VZPHV5qA_Ss-NTKiFyPM-2" vertex="1">
          <mxGeometry y="50" width="130" height="20" as="geometry" />
        </mxCell>
        <mxCell id="VZPHV5qA_Ss-NTKiFyPM-6" value="0..n" style="text;html=1;strokeColor=none;fillColor=none;align=center;verticalAlign=middle;whiteSpace=wrap;rounded=0;" parent="1" vertex="1">
          <mxGeometry x="330" y="-240" width="60" height="30" as="geometry" />
        </mxCell>
        <mxCell id="VZPHV5qA_Ss-NTKiFyPM-7" value="riferimento a menù di" style="text;html=1;strokeColor=none;fillColor=none;align=center;verticalAlign=middle;whiteSpace=wrap;rounded=0;" parent="1" vertex="1">
          <mxGeometry x="40" y="-250" width="80" height="30" as="geometry" />
        </mxCell>
        <mxCell id="VZPHV5qA_Ss-NTKiFyPM-8" value="" style="triangle;whiteSpace=wrap;html=1;rotation=-180;fillColor=#dae8fc;strokeColor=#6c8ebf;" parent="1" vertex="1">
          <mxGeometry x="30" y="-245" width="10" height="20" as="geometry" />
        </mxCell>
        <mxCell id="VZPHV5qA_Ss-NTKiFyPM-9" value="" style="group;rotation=-90;" parent="1" vertex="1" connectable="0">
          <mxGeometry x="590" y="-80" width="70" height="30" as="geometry" />
        </mxCell>
        <mxCell id="VZPHV5qA_Ss-NTKiFyPM-10" value="riferita a" style="text;html=1;strokeColor=none;fillColor=none;align=center;verticalAlign=middle;whiteSpace=wrap;rounded=0;rotation=0;" parent="VZPHV5qA_Ss-NTKiFyPM-9" vertex="1">
          <mxGeometry x="5" y="-5" width="60" height="30" as="geometry" />
        </mxCell>
        <mxCell id="VZPHV5qA_Ss-NTKiFyPM-11" value="" style="triangle;whiteSpace=wrap;html=1;rotation=-270;fillColor=#dae8fc;strokeColor=#6c8ebf;" parent="VZPHV5qA_Ss-NTKiFyPM-9" vertex="1">
          <mxGeometry x="30" y="35" width="10" height="20" as="geometry" />
        </mxCell>
        <mxCell id="VZPHV5qA_Ss-NTKiFyPM-12" style="edgeStyle=orthogonalEdgeStyle;rounded=0;orthogonalLoop=1;jettySize=auto;html=1;entryX=1;entryY=0.5;entryDx=0;entryDy=0;endArrow=none;endFill=0;" parent="1" source="VZPHV5qA_Ss-NTKiFyPM-3" target="78LwuEahcBiL7WYBxUG0-5" edge="1">
          <mxGeometry relative="1" as="geometry">
            <Array as="points">
              <mxPoint x="650" y="-212" />
              <mxPoint x="650" y="386" />
            </Array>
          </mxGeometry>
        </mxCell>
        <mxCell id="VZPHV5qA_Ss-NTKiFyPM-13" value="0..n" style="text;html=1;strokeColor=none;fillColor=none;align=center;verticalAlign=middle;whiteSpace=wrap;rounded=0;" parent="1" vertex="1">
          <mxGeometry x="580" y="-250" width="60" height="30" as="geometry" />
        </mxCell>
        <mxCell id="VZPHV5qA_Ss-NTKiFyPM-15" value="1" style="text;html=1;strokeColor=none;fillColor=none;align=center;verticalAlign=middle;whiteSpace=wrap;rounded=0;" parent="1" vertex="1">
          <mxGeometry x="592.5" y="328" width="60" height="32" as="geometry" />
        </mxCell>
        <mxCell id="Vy3BGtT5b-SCxXcEpdcU-3" value="0..1" style="text;html=1;strokeColor=none;fillColor=none;align=center;verticalAlign=middle;whiteSpace=wrap;rounded=0;" parent="1" vertex="1">
          <mxGeometry x="-1290" y="250" width="50" height="20" as="geometry" />
        </mxCell>
        <mxCell id="SxB-an0MRpLHH-OonoaN-3" value="riferita a" style="text;html=1;strokeColor=none;fillColor=none;align=center;verticalAlign=middle;whiteSpace=wrap;rounded=0;rotation=0;" parent="1" vertex="1">
          <mxGeometry x="380" y="-30.090000000000003" width="60" height="30" as="geometry" />
        </mxCell>
        <mxCell id="SxB-an0MRpLHH-OonoaN-6" value="1" style="text;html=1;strokeColor=none;fillColor=none;align=center;verticalAlign=middle;whiteSpace=wrap;rounded=0;" parent="1" vertex="1">
          <mxGeometry x="-640" y="220" width="60" height="30" as="geometry" />
        </mxCell>
        <mxCell id="SxB-an0MRpLHH-OonoaN-7" value="" style="triangle;whiteSpace=wrap;html=1;rotation=-90;fillColor=#dae8fc;strokeColor=#6c8ebf;" parent="1" vertex="1">
          <mxGeometry x="1188.5" y="220" width="10" height="20" as="geometry" />
        </mxCell>
        <mxCell id="SxB-an0MRpLHH-OonoaN-8" value="1" style="text;html=1;strokeColor=none;fillColor=none;align=center;verticalAlign=middle;whiteSpace=wrap;rounded=0;" parent="1" vertex="1">
          <mxGeometry x="1170" y="510" width="60" height="30" as="geometry" />
        </mxCell>
        <mxCell id="Q5iaierVOrc5g9VGVUgE-6" value="0..1" style="text;html=1;strokeColor=none;fillColor=none;align=center;verticalAlign=middle;whiteSpace=wrap;rounded=0;" vertex="1" parent="1">
          <mxGeometry x="767" y="190" width="60" height="30" as="geometry" />
        </mxCell>
        <mxCell id="Q5iaierVOrc5g9VGVUgE-7" style="edgeStyle=orthogonalEdgeStyle;rounded=0;orthogonalLoop=1;jettySize=auto;html=1;entryX=0.25;entryY=0;entryDx=0;entryDy=0;exitX=0.629;exitY=0.994;exitDx=0;exitDy=0;exitPerimeter=0;endArrow=none;endFill=0;" edge="1" parent="1" source="78LwuEahcBiL7WYBxUG0-10" target="anGM7aMK89ea6Gd5aUln-73">
          <mxGeometry relative="1" as="geometry" />
        </mxCell>
        <mxCell id="Q5iaierVOrc5g9VGVUgE-8" value="/Composto da" style="text;html=1;strokeColor=none;fillColor=none;align=center;verticalAlign=middle;whiteSpace=wrap;rounded=0;" vertex="1" parent="1">
          <mxGeometry x="210" y="435" width="100" height="30" as="geometry" />
        </mxCell>
        <mxCell id="Q5iaierVOrc5g9VGVUgE-9" value="" style="triangle;whiteSpace=wrap;html=1;rotation=90;fillColor=#dae8fc;strokeColor=#6c8ebf;" vertex="1" parent="1">
          <mxGeometry x="250" y="464.01" width="10" height="20" as="geometry" />
        </mxCell>
        <mxCell id="Q5iaierVOrc5g9VGVUgE-14" value="0..1" style="text;html=1;strokeColor=none;fillColor=none;align=center;verticalAlign=middle;whiteSpace=wrap;rounded=0;" vertex="1" parent="1">
          <mxGeometry x="-830" y="40" width="60" height="30" as="geometry" />
        </mxCell>
        <mxCell id="Q5iaierVOrc5g9VGVUgE-17" value="" style="group" vertex="1" connectable="0" parent="1">
          <mxGeometry x="-310" y="224" width="140" height="180" as="geometry" />
        </mxCell>
        <mxCell id="78LwuEahcBiL7WYBxUG0-9" value="Menù" style="swimlane;fontStyle=0;childLayout=stackLayout;horizontal=1;startSize=26;horizontalStack=0;resizeParent=1;resizeParentMax=0;resizeLast=0;collapsible=1;marginBottom=0;labelBackgroundColor=none;strokeColor=default;fillColor=default;fontColor=default;container=0;" parent="Q5iaierVOrc5g9VGVUgE-17" vertex="1">
          <mxGeometry width="140" height="180" as="geometry" />
        </mxCell>
        <mxCell id="78LwuEahcBiL7WYBxUG0-10" value="titolo: testo&#xa;pubblicato: sì/no&#xa;richiede cuoco: sì/no&#xa;piatti caldi: sì/no&#xa;richiede cucina: sì/no&#xa;buffet: sì/no&#xa;finger food: sì/no&#xa;&#xa;" style="text;strokeColor=default;fillColor=none;align=left;verticalAlign=top;spacingLeft=4;spacingRight=4;overflow=hidden;rotatable=0;points=[[0,0.5],[1,0.5]];portConstraint=eastwest;labelBackgroundColor=none;fontColor=#1A1A1A;" parent="Q5iaierVOrc5g9VGVUgE-17" vertex="1">
          <mxGeometry y="26" width="140" height="154" as="geometry" />
        </mxCell>
        <mxCell id="Q5iaierVOrc5g9VGVUgE-19" value="1" style="text;html=1;strokeColor=none;fillColor=none;align=center;verticalAlign=middle;whiteSpace=wrap;rounded=0;" vertex="1" parent="1">
          <mxGeometry x="470" y="332" width="60" height="30" as="geometry" />
        </mxCell>
      </root>
    </mxGraphModel>
  </diagram>
</mxfile>
